<?xml version="1.0" encoding="UTF-8" standalone="no"?>
<!DOCTYPE svg PUBLIC "-//W3C//DTD SVG 1.1//EN" "http://www.w3.org/Graphics/SVG/1.1/DTD/svg11.dtd">
<svg width="100%" height="100%" viewBox="0 0 1080 1080" version="1.1" xmlns="http://www.w3.org/2000/svg" xmlns:xlink="http://www.w3.org/1999/xlink" xml:space="preserve" xmlns:serif="http://www.serif.com/" style="fill-rule:evenodd;clip-rule:evenodd;stroke-linejoin:round;stroke-miterlimit:2;">
    <g transform="matrix(1.3094,0,0,1.3094,-179.224,-192.306)">
        <path d="M893.013,334.426L893.013,709.546C893.013,813.063 808.97,897.106 705.453,897.106L330.333,897.106C226.816,897.106 142.773,813.063 142.773,709.546L142.773,334.426C142.773,230.909 226.816,146.866 330.333,146.866L705.453,146.866C808.97,146.866 893.013,230.909 893.013,334.426Z" style="fill:rgb(116,79,147);"/>
    </g>
    <g transform="matrix(1.12266,0,0,0.923357,-82.2602,79.8542)">
        <path d="M893.013,334.426L893.013,709.546C893.013,813.063 823.89,897.106 738.751,897.106L297.035,897.106C211.895,897.106 142.773,813.063 142.773,709.546L142.773,334.426C142.773,230.909 211.895,146.866 297.035,146.866L738.751,146.866C823.89,146.866 893.013,230.909 893.013,334.426Z" style="fill:rgb(91,65,113);"/>
    </g>
    <g transform="matrix(1.02286,0,0,0.789857,166.571,371.415)">
        <path d="M893.013,334.426L893.013,709.546C893.013,813.063 828.115,897.106 748.179,897.106L287.607,897.106C207.671,897.106 142.773,813.063 142.773,709.546L142.773,334.426C142.773,230.909 207.671,146.866 287.607,146.866L748.179,146.866C828.115,146.866 893.013,230.909 893.013,334.426Z" style="fill:rgb(79,147,137);"/>
    </g>
    <g transform="matrix(1.02286,0,0,0.789857,-25.2635,159.716)">
        <path d="M893.013,334.426L893.013,709.546C893.013,813.063 828.115,897.106 748.179,897.106L287.607,897.106C207.671,897.106 142.773,813.063 142.773,709.546L142.773,334.426C142.773,230.909 207.671,146.866 287.607,146.866L748.179,146.866C828.115,146.866 893.013,230.909 893.013,334.426Z" style="fill:rgb(79,147,137);fill-opacity:0.36;"/>
        <path d="M886.982,325.59C886.826,321.402 889.324,317.838 892.558,317.635C895.791,317.432 898.544,320.667 898.7,324.855C898.819,328.026 898.879,331.217 898.879,334.426L898.879,342.241C898.879,346.433 896.25,349.837 893.013,349.837C889.776,349.837 887.147,346.433 887.147,342.241L887.147,334.426C887.147,331.463 887.092,328.517 886.982,325.59ZM887.147,389.131C887.147,384.939 889.776,381.535 893.013,381.535C896.25,381.535 898.879,384.939 898.879,389.131L898.879,404.761C898.879,408.954 896.25,412.358 893.013,412.358C889.776,412.358 887.147,408.954 887.147,404.761L887.147,389.131ZM887.147,451.651C887.147,447.459 889.776,444.055 893.013,444.055C896.25,444.055 898.879,447.459 898.879,451.651L898.879,467.281C898.879,471.473 896.25,474.877 893.013,474.877C889.776,474.877 887.147,471.473 887.147,467.281L887.147,451.651ZM887.147,514.171C887.147,509.979 889.776,506.575 893.013,506.575C896.25,506.575 898.879,509.979 898.879,514.171L898.879,529.801C898.879,533.994 896.25,537.398 893.013,537.398C889.776,537.398 887.147,533.994 887.147,529.801L887.147,514.171ZM887.147,576.691C887.147,572.499 889.776,569.095 893.013,569.095C896.25,569.095 898.879,572.499 898.879,576.691L898.879,592.321C898.879,596.514 896.25,599.917 893.013,599.917C889.776,599.917 887.147,596.514 887.147,592.321L887.147,576.691ZM887.147,639.211C887.147,635.019 889.776,631.615 893.013,631.615C896.25,631.615 898.879,635.019 898.879,639.211L898.879,654.841C898.879,659.034 896.25,662.437 893.013,662.437C889.776,662.437 887.147,659.034 887.147,654.841L887.147,639.211ZM887.147,701.731C887.147,697.539 889.776,694.135 893.013,694.135C896.25,694.135 898.879,697.539 898.879,701.731L898.879,709.546C898.879,712.755 898.819,715.946 898.7,719.117C898.544,723.305 895.791,726.54 892.558,726.337C889.324,726.134 886.826,722.57 886.982,718.382C887.092,715.455 887.147,712.509 887.147,709.546L887.147,701.731ZM879.051,770.178C880.143,766.231 883.504,764.175 886.552,765.589C889.599,767.003 891.187,771.355 890.095,775.302C888.424,781.343 886.53,787.246 884.424,792.995C883.037,796.783 879.536,798.401 876.611,796.604C873.686,794.808 872.437,790.274 873.824,786.486C875.764,781.187 877.511,775.746 879.051,770.178ZM851.13,830.375C853.305,827.27 857.018,827.035 859.416,829.852C861.814,832.669 861.995,837.477 859.82,840.582C856.507,845.312 853.017,849.831 849.365,854.121C846.967,856.938 843.254,856.703 841.079,853.598C838.904,850.492 839.085,845.684 841.483,842.868C844.853,838.909 848.073,834.74 851.13,830.375ZM807.592,872.256C810.517,870.46 814.018,872.077 815.405,875.865C816.792,879.654 815.544,884.187 812.618,885.984C808.179,888.71 803.62,891.164 798.956,893.328C795.908,894.742 792.547,892.685 791.455,888.739C790.363,884.792 791.951,880.439 794.999,879.025C799.298,877.031 803.5,874.769 807.592,872.256ZM755.002,889.296C758.236,889.094 760.988,892.329 761.145,896.516C761.301,900.704 758.803,904.269 755.569,904.471C753.12,904.625 750.656,904.702 748.179,904.702L741.782,904.702C738.544,904.702 735.916,901.299 735.916,897.106C735.916,892.914 738.544,889.51 741.782,889.51L748.179,889.51C750.466,889.51 752.741,889.438 755.002,889.296ZM703.401,889.51C706.638,889.51 709.266,892.914 709.266,897.106C709.266,901.299 706.638,904.702 703.401,904.702L690.607,904.702C687.369,904.702 684.741,901.299 684.741,897.106C684.741,892.914 687.369,889.51 690.607,889.51L703.401,889.51ZM652.226,889.51C655.463,889.51 658.092,892.914 658.092,897.106C658.092,901.299 655.463,904.702 652.226,904.702L639.432,904.702C636.195,904.702 633.566,901.299 633.566,897.106C633.566,892.914 636.195,889.51 639.432,889.51L652.226,889.51ZM601.051,889.51C604.289,889.51 606.917,892.914 606.917,897.106C606.917,901.299 604.289,904.702 601.051,904.702L588.258,904.702C585.021,904.702 582.392,901.299 582.392,897.106C582.392,892.914 585.021,889.51 588.258,889.51L601.051,889.51ZM549.877,889.51C553.114,889.51 555.743,892.914 555.743,897.106C555.743,901.299 553.114,904.702 549.877,904.702L537.083,904.702C533.846,904.702 531.217,901.299 531.217,897.106C531.217,892.914 533.846,889.51 537.083,889.51L549.877,889.51ZM498.702,889.51C501.94,889.51 504.568,892.914 504.568,897.106C504.568,901.299 501.94,904.702 498.702,904.702L485.909,904.702C482.672,904.702 480.043,901.299 480.043,897.106C480.043,892.914 482.672,889.51 485.909,889.51L498.702,889.51ZM447.528,889.51C450.766,889.51 453.394,892.914 453.394,897.106C453.394,901.299 450.766,904.702 447.528,904.702L434.735,904.702C431.497,904.702 428.869,901.299 428.869,897.106C428.869,892.914 431.497,889.51 434.735,889.51L447.528,889.51ZM396.353,889.51C399.591,889.51 402.219,892.914 402.219,897.106C402.219,901.299 399.591,904.702 396.353,904.702L383.56,904.702C380.322,904.702 377.694,901.299 377.694,897.106C377.694,892.914 380.322,889.51 383.56,889.51L396.353,889.51ZM345.179,889.51C348.416,889.51 351.044,892.914 351.044,897.106C351.044,901.299 348.416,904.702 345.179,904.702L332.385,904.702C329.147,904.702 326.519,901.299 326.519,897.106C326.519,892.914 329.147,889.51 332.385,889.51L345.179,889.51ZM294.004,889.51C297.241,889.51 299.87,892.914 299.87,897.106C299.87,901.299 297.241,904.702 294.004,904.702L287.607,904.702C285.129,904.702 282.665,904.625 280.216,904.471C276.983,904.269 274.484,900.704 274.641,896.516C274.798,892.329 277.55,889.094 280.784,889.296C283.045,889.438 285.319,889.51 287.607,889.51L294.004,889.51ZM240.787,879.025C243.835,880.439 245.423,884.792 244.331,888.739C243.239,892.685 239.878,894.742 236.83,893.328C232.166,891.164 227.607,888.71 223.167,885.984C220.242,884.188 218.993,879.654 220.381,875.866C221.768,872.077 225.269,870.46 228.194,872.257C232.286,874.769 236.488,877.031 240.787,879.025ZM194.303,842.868C196.701,845.684 196.882,850.492 194.707,853.598C192.532,856.703 188.819,856.938 186.421,854.121C182.768,849.831 179.279,845.312 175.966,840.582C173.791,837.477 173.972,832.669 176.37,829.852C178.768,827.035 182.481,827.27 184.656,830.375C187.713,834.74 190.932,838.909 194.303,842.868ZM161.962,786.486C163.349,790.274 162.1,794.808 159.175,796.605C156.25,798.401 152.749,796.784 151.361,792.996C149.256,787.246 147.361,781.343 145.69,775.302C144.598,771.355 146.186,767.003 149.234,765.589C152.282,764.175 155.643,766.231 156.735,770.178C158.275,775.746 160.021,781.187 161.962,786.486ZM148.803,718.382C148.96,722.57 146.462,726.134 143.228,726.337C139.994,726.54 137.242,723.305 137.085,719.117C136.967,715.946 136.907,712.755 136.907,709.546L136.907,701.731C136.907,697.539 139.535,694.135 142.773,694.135C146.01,694.135 148.639,697.539 148.639,701.731L148.639,709.546C148.639,712.509 148.694,715.455 148.803,718.382ZM148.639,654.841C148.639,659.033 146.01,662.437 142.773,662.437C139.535,662.437 136.907,659.033 136.907,654.841L136.907,639.211C136.907,635.018 139.535,631.614 142.773,631.614C146.01,631.614 148.639,635.018 148.639,639.211L148.639,654.841ZM148.639,592.321C148.639,596.514 146.01,599.917 142.773,599.917C139.535,599.917 136.907,596.514 136.907,592.321L136.907,576.691C136.907,572.499 139.535,569.095 142.773,569.095C146.01,569.095 148.639,572.499 148.639,576.691L148.639,592.321ZM148.639,529.801C148.639,533.993 146.01,537.397 142.773,537.397C139.535,537.397 136.907,533.993 136.907,529.801L136.907,514.171C136.907,509.978 139.535,506.574 142.773,506.574C146.01,506.574 148.639,509.978 148.639,514.171L148.639,529.801ZM148.639,467.281C148.639,471.473 146.01,474.877 142.773,474.877C139.535,474.877 136.907,471.473 136.907,467.281L136.907,451.651C136.907,447.458 139.535,444.055 142.773,444.055C146.01,444.055 148.639,447.458 148.639,451.651L148.639,467.281ZM148.639,404.761C148.639,408.953 146.01,412.357 142.773,412.357C139.535,412.357 136.907,408.953 136.907,404.761L136.907,389.131C136.907,384.938 139.535,381.535 142.773,381.535C146.01,381.535 148.639,384.938 148.639,389.131L148.639,404.761ZM148.639,342.241C148.639,346.433 146.01,349.837 142.773,349.837C139.535,349.837 136.907,346.433 136.907,342.241L136.907,334.426C136.907,331.217 136.967,328.026 137.085,324.855C137.242,320.667 139.994,317.432 143.228,317.635C146.462,317.838 148.96,321.402 148.803,325.59C148.694,328.517 148.639,331.463 148.639,334.426L148.639,342.241ZM156.735,273.794C155.643,277.741 152.282,279.797 149.234,278.383C146.186,276.969 144.598,272.617 145.69,268.67C147.361,262.629 149.256,256.726 151.361,250.977C152.748,247.189 156.25,245.571 159.175,247.368C162.1,249.164 163.349,253.698 161.962,257.486C160.021,262.785 158.275,268.226 156.735,273.794ZM184.656,213.597C182.481,216.702 178.768,216.937 176.37,214.12C173.972,211.303 173.791,206.496 175.966,203.39C179.279,198.66 182.768,194.141 186.421,189.851C188.819,187.034 192.532,187.269 194.707,190.374C196.882,193.48 196.701,198.288 194.303,201.104C190.932,205.063 187.713,209.232 184.656,213.597ZM228.194,171.716C225.269,173.512 221.768,171.895 220.38,168.107C218.993,164.318 220.242,159.785 223.167,157.988C227.607,155.262 232.165,152.808 236.83,150.644C239.878,149.23 243.239,151.287 244.331,155.234C245.423,159.18 243.835,163.533 240.787,164.947C236.487,166.941 232.286,169.203 228.194,171.716ZM280.784,154.676C277.55,154.878 274.798,151.643 274.641,147.456C274.484,143.268 276.983,139.704 280.216,139.501C282.665,139.347 285.129,139.27 287.607,139.27L294.004,139.27C297.241,139.27 299.87,142.673 299.87,146.866C299.87,151.058 297.241,154.462 294.004,154.462L287.607,154.462C285.319,154.462 283.045,154.534 280.784,154.676ZM332.385,154.462C329.148,154.462 326.519,151.058 326.519,146.866C326.519,142.673 329.148,139.27 332.385,139.27L345.179,139.27C348.417,139.27 351.045,142.673 351.045,146.866C351.045,151.058 348.417,154.462 345.179,154.462L332.385,154.462ZM383.56,154.462C380.322,154.462 377.694,151.058 377.694,146.866C377.694,142.673 380.322,139.27 383.56,139.27L396.354,139.27C399.591,139.27 402.219,142.673 402.219,146.866C402.219,151.058 399.591,154.462 396.354,154.462L383.56,154.462ZM434.734,154.462C431.497,154.462 428.868,151.058 428.868,146.866C428.868,142.673 431.497,139.27 434.734,139.27L447.528,139.27C450.765,139.27 453.394,142.673 453.394,146.866C453.394,151.058 450.765,154.462 447.528,154.462L434.734,154.462ZM485.909,154.462C482.671,154.462 480.043,151.058 480.043,146.866C480.043,142.673 482.671,139.27 485.909,139.27L498.702,139.27C501.94,139.27 504.568,142.673 504.568,146.866C504.568,151.058 501.94,154.462 498.702,154.462L485.909,154.462ZM537.083,154.462C533.846,154.462 531.217,151.058 531.217,146.866C531.217,142.673 533.846,139.27 537.083,139.27L549.877,139.27C553.114,139.27 555.742,142.673 555.742,146.866C555.742,151.058 553.114,154.462 549.877,154.462L537.083,154.462ZM588.258,154.462C585.02,154.462 582.392,151.058 582.392,146.866C582.392,142.673 585.02,139.27 588.258,139.27L601.051,139.27C604.289,139.27 606.917,142.673 606.917,146.866C606.917,151.058 604.289,154.462 601.051,154.462L588.258,154.462ZM639.432,154.462C636.195,154.462 633.566,151.058 633.566,146.866C633.566,142.673 636.195,139.27 639.432,139.27L652.226,139.27C655.463,139.27 658.092,142.673 658.092,146.866C658.092,151.058 655.463,154.462 652.226,154.462L639.432,154.462ZM690.607,154.462C687.37,154.462 684.741,151.058 684.741,146.866C684.741,142.673 687.37,139.27 690.607,139.27L703.401,139.27C706.638,139.27 709.267,142.673 709.267,146.866C709.267,151.058 706.638,154.462 703.401,154.462L690.607,154.462ZM741.782,154.462C738.544,154.462 735.916,151.058 735.916,146.866C735.916,142.673 738.544,139.27 741.782,139.27L748.179,139.27C750.656,139.27 753.12,139.347 755.569,139.501C758.803,139.704 761.301,143.268 761.145,147.456C760.988,151.643 758.236,154.878 755.002,154.676C752.741,154.534 750.466,154.462 748.179,154.462L741.782,154.462ZM794.999,164.947C791.951,163.533 790.363,159.18 791.455,155.233C792.547,151.287 795.908,149.23 798.955,150.644C803.62,152.808 808.179,155.262 812.618,157.988C815.543,159.784 816.792,164.318 815.405,168.107C814.018,171.895 810.517,173.512 807.592,171.715C803.5,169.203 799.298,166.941 794.999,164.947ZM841.483,201.104C839.085,198.288 838.904,193.48 841.079,190.374C843.254,187.269 846.967,187.034 849.365,189.851C853.017,194.141 856.507,198.66 859.82,203.39C861.995,206.496 861.814,211.303 859.416,214.12C857.018,216.937 853.305,216.702 851.13,213.597C848.073,209.232 844.853,205.063 841.483,201.104ZM873.824,257.486C872.437,253.698 873.686,249.164 876.611,247.368C879.536,245.571 883.037,247.188 884.424,250.976C886.53,256.726 888.424,262.629 890.095,268.67C891.187,272.617 889.599,276.969 886.551,278.383C883.504,279.797 880.143,277.741 879.051,273.794C877.511,268.226 875.764,262.785 873.824,257.486Z" style="fill:rgb(79,147,137);"/>
    </g>
</svg>
