<?xml version="1.0" encoding="UTF-8" standalone="no"?>
<!DOCTYPE svg PUBLIC "-//W3C//DTD SVG 1.1//EN" "http://www.w3.org/Graphics/SVG/1.1/DTD/svg11.dtd">
<svg width="100%" height="100%" viewBox="0 0 9449 9449" version="1.1" xmlns="http://www.w3.org/2000/svg" xmlns:xlink="http://www.w3.org/1999/xlink" xml:space="preserve" style="fill-rule:evenodd;clip-rule:evenodd;stroke-linejoin:round;stroke-miterlimit:2;">
    <g transform="matrix(1,0,0,1,174.923,719.226)">
        <path d="M4549.49,294.453C2265.41,294.453 411.037,2148.83 411.037,4432.9C411.037,5408.83 749.584,6306.31 1315.51,7014.24C1503.27,7249.12 1950.11,7651.92 1950.11,7651.92C1995.99,7693.12 2055.48,7715.91 2117.15,7715.91L6981.83,7715.91C7043.49,7715.91 7102.99,7693.12 7148.87,7651.92C7148.87,7651.92 7595.7,7249.12 7783.47,7014.24C8349.39,6306.31 8687.93,5408.83 8687.93,4432.9C8687.93,2148.83 6833.56,294.453 4549.49,294.453ZM4549.49,794.453C6557.6,794.453 8187.94,2424.79 8187.94,4432.9C8187.94,5290.79 7890.39,6079.73 7392.92,6702.03C7266.35,6860.36 7009.4,7101.81 6885.17,7215.91C6537.58,7215.91 5330.37,7215.91 4549.49,7215.91L2213.8,7215.91C2089.57,7101.81 1832.62,6860.36 1706.05,6702.03C1208.58,6079.73 911.037,5290.79 911.037,4432.9C911.037,2424.79 2541.37,794.453 4549.49,794.453Z"/>
    </g>
    <g transform="matrix(0.567226,0.823562,-0.823562,0.567226,7158.44,-2390.15)">
        <path d="M4913.86,5119.47C4291.18,5119.47 3785.64,5625.01 3785.64,6247.69C3785.64,6870.38 4291.18,7375.92 4913.86,7375.92C5536.55,7375.92 6042.09,6870.38 6042.09,6247.69C6042.09,5625.01 5536.55,5119.47 4913.86,5119.47L4913.86,5119.47ZM4913.86,5619.47C5260.59,5619.47 5542.09,5900.97 5542.09,6247.69C5542.09,6594.42 5260.59,6875.92 4913.86,6875.92C4567.14,6875.92 4285.64,6594.42 4285.64,6247.69C4285.64,5900.97 4567.14,5619.47 4913.86,5619.47L4913.86,5619.47Z"/>
    </g>
    <g transform="matrix(0.141081,1.00854,-1.01294,0.104945,10172.8,-290.491)">
        <path d="M5598.84,5552.99L6690.89,4460.93C6785.03,4366.8 6782.25,4211.15 6684.68,4113.59C6587.11,4016.02 6431.48,4013.24 6337.34,4107.38L5245.28,5199.43C5151.15,5293.57 5153.93,5449.21 5251.49,5546.78C5349.06,5644.34 5504.7,5647.12 5598.84,5552.99Z"/>
    </g>
    <g transform="matrix(1,0,0,1,19.8835,415.834)">
        <path d="M5061,1841.7C5061,1759.35 4994.15,1692.5 4911.8,1692.5L4613.41,1692.5C4531.06,1692.5 4464.21,1759.35 4464.21,1841.7L4464.21,2426.49C4464.21,2508.84 4531.06,2575.69 4613.41,2575.69L4911.8,2575.69C4994.15,2575.69 5061,2508.84 5061,2426.49L5061,1841.7Z"/>
    </g>
    <g transform="matrix(6.12574e-17,1,-1,6.12574e-17,9535.09,464.65)">
        <path d="M5061,1841.7C5061,1759.35 4994.15,1692.5 4911.8,1692.5L4613.41,1692.5C4531.06,1692.5 4464.21,1759.35 4464.21,1841.7L4464.21,2426.49C4464.21,2508.84 4531.06,2575.69 4613.41,2575.69L4911.8,2575.69C4994.15,2575.69 5061,2508.84 5061,2426.49L5061,1841.7Z"/>
    </g>
    <g transform="matrix(6.12574e-17,1,-1,6.12574e-17,4221.79,464.65)">
        <path d="M5061,1841.7C5061,1759.35 4994.15,1692.5 4911.8,1692.5L4613.41,1692.5C4531.06,1692.5 4464.21,1759.35 4464.21,1841.7L4464.21,2426.49C4464.21,2508.84 4531.06,2575.69 4613.41,2575.69L4911.8,2575.69C4994.15,2575.69 5061,2508.84 5061,2426.49L5061,1841.7Z"/>
    </g>
    <g transform="matrix(0.707107,0.707107,-0.707107,0.707107,4795.04,-1485.06)">
        <path d="M5061,1841.7C5061,1759.35 4994.15,1692.5 4911.8,1692.5L4613.41,1692.5C4531.06,1692.5 4464.21,1759.35 4464.21,1841.7L4464.21,2426.49C4464.21,2508.84 4531.06,2575.69 4613.41,2575.69L4911.8,2575.69C4994.15,2575.69 5061,2508.84 5061,2426.49L5061,1841.7Z"/>
    </g>
    <g transform="matrix(0.707107,-0.707107,0.707107,0.707107,-1970.57,5250.28)">
        <path d="M5061,1841.7C5061,1759.35 4994.15,1692.5 4911.8,1692.5L4613.41,1692.5C4531.06,1692.5 4464.21,1759.35 4464.21,1841.7L4464.21,2426.49C4464.21,2508.84 4531.06,2575.69 4613.41,2575.69L4911.8,2575.69C4994.15,2575.69 5061,2508.84 5061,2426.49L5061,1841.7Z"/>
    </g>
</svg>
