<?xml version="1.0" encoding="UTF-8" standalone="no"?>
<!DOCTYPE svg PUBLIC "-//W3C//DTD SVG 1.1//EN" "http://www.w3.org/Graphics/SVG/1.1/DTD/svg11.dtd">
<svg width="100%" height="100%" viewBox="0 0 800 800" version="1.1" xmlns="http://www.w3.org/2000/svg" xmlns:xlink="http://www.w3.org/1999/xlink" xml:space="preserve" style="fill-rule:evenodd;clip-rule:evenodd;stroke-linecap:round;stroke-linejoin:round;stroke-miterlimit:1.5;">
    <g transform="matrix(1.02916,0,0,1.01786,-11.6651,-7.14347)">
        <path d="M400,792.982C353.449,789.798 197.071,683.881 147.213,629.294C97.355,574.707 50.655,163.972 91.441,127.699C132.228,91.426 243.561,92.86 276.22,79.059C308.88,65.259 358.74,7.018 400,7.018C441.26,7.018 491.12,65.259 523.78,79.059C556.439,92.86 667.772,91.426 708.559,127.699C749.345,163.972 702.645,574.707 652.787,629.294C602.929,683.881 446.551,789.798 400,792.982ZM337.333,337.333L249.579,337.333C232.286,337.333 218.246,351.373 218.246,368.667L218.246,431.333C218.246,448.627 232.286,462.667 249.579,462.667L337.333,462.667L337.333,550.421C337.333,567.714 351.373,581.754 368.667,581.754L431.333,581.754C448.627,581.754 462.667,567.714 462.667,550.421L462.667,462.667L550.421,462.667C567.714,462.667 581.754,448.627 581.754,431.333L581.754,368.667C581.754,351.373 567.714,337.333 550.421,337.333L462.667,337.333L462.667,249.579C462.667,232.286 448.627,218.246 431.333,218.246L368.667,218.246C351.373,218.246 337.333,232.286 337.333,249.579L337.333,337.333Z" style="stroke:black;stroke-width:0.98px;"/>
    </g>
</svg>
