<?xml version="1.0" encoding="UTF-8" standalone="no"?>
<!DOCTYPE svg PUBLIC "-//W3C//DTD SVG 1.1//EN" "http://www.w3.org/Graphics/SVG/1.1/DTD/svg11.dtd">
<svg width="100%" height="100%" viewBox="0 0 5906 5906" version="1.1" xmlns="http://www.w3.org/2000/svg" xmlns:xlink="http://www.w3.org/1999/xlink" xml:space="preserve" style="fill-rule:evenodd;clip-rule:evenodd;stroke-linejoin:round;stroke-miterlimit:2;">
    <path id="Skill" d="m5905.509766,503.640015c0,-277.96701 -225.669922,-503.640015 -503.639648,-503.640015l-4898.230103,0c-277.96701,0 -503.640015,225.673004 -503.640015,503.640015l0,4898.230103c0,277.969727 225.673004,503.639648 503.640015,503.639648l4898.230103,0c277.969727,0 503.639648,-225.669922 503.639648,-503.639648l0,-4898.230103zm-576.779785,1392.780029c0,-247.380005 -200.839844,-448.220093 -448.22998,-448.220093l-3791.780029,0c-247.380981,0 -448.222961,200.840088 -448.222961,448.220093l0,2977.740112c0,247.379883 200.84198,448.22998 448.222961,448.22998l3791.780029,0c247.390137,0 448.22998,-200.850098 448.22998,-448.22998l0,-2977.740112z"/>
</svg>
