<?xml version="1.0" encoding="UTF-8" standalone="no"?>
<!DOCTYPE svg PUBLIC "-//W3C//DTD SVG 1.1//EN" "http://www.w3.org/Graphics/SVG/1.1/DTD/svg11.dtd">
<svg width="100%" height="100%" viewBox="0 0 1000 210" version="1.1" xmlns="http://www.w3.org/2000/svg" xmlns:xlink="http://www.w3.org/1999/xlink" xml:space="preserve" xmlns:serif="http://www.serif.com/" style="fill-rule:evenodd;clip-rule:evenodd;stroke-linejoin:round;stroke-miterlimit:2;fill:white">
    <g transform="matrix(1.0226,0,0,1.0226,2.84217e-14,0.854233)">
        <path d="M83.783,192.817C83.783,186.816 78.921,181.946 72.916,181.946C66.915,181.946 62.045,186.816 62.045,192.817C62.045,198.826 66.915,203.688 72.916,203.688C78.921,203.688 83.783,198.826 83.783,192.817ZM137.159,182.813C137.159,176.812 132.301,171.942 126.292,171.942C120.287,171.942 115.421,176.812 115.421,182.813C115.421,188.814 120.287,193.676 126.292,193.676C132.301,193.676 137.159,188.814 137.159,182.813ZM417.6,153.357L417.561,153.586C417.513,153.871 417.41,154.073 417.252,154.192C417.094,154.31 416.88,154.37 416.611,154.37C416.373,154.37 416.049,154.314 415.637,154.203C415.225,154.093 414.679,154.037 413.998,154.037C412.779,154.037 411.734,154.374 410.863,155.047C409.992,155.72 409.256,156.705 408.654,158.003L408.654,173.18L402.788,173.18L402.788,148.812L406.232,148.812C406.834,148.812 407.253,148.923 407.491,149.145C407.728,149.366 407.886,149.746 407.966,150.285L408.322,153.23C409.193,151.726 410.214,150.538 411.386,149.667C412.557,148.796 413.871,148.361 415.328,148.361C416.215,148.361 416.99,148.511 417.653,148.812L420.745,148.812C421.22,148.812 421.584,148.923 421.837,149.145C422.09,149.366 422.28,149.62 422.407,149.905L427.608,162.54C427.782,162.951 427.933,163.379 428.06,163.822C428.186,164.266 428.297,164.709 428.392,165.152C428.519,164.693 428.657,164.25 428.808,163.822C428.958,163.395 429.12,162.959 429.295,162.516L434.187,149.905C434.314,149.588 434.524,149.327 434.816,149.121C435.109,148.915 435.438,148.812 435.802,148.812L440.505,148.812L427.228,179.877C427.054,180.289 426.829,180.602 426.551,180.815C426.274,181.029 425.851,181.136 425.281,181.136L420.911,181.136L425.471,171.375L417.6,153.357ZM362.456,173.18L359.82,173.18C359.266,173.18 358.83,173.097 358.514,172.93C358.197,172.764 357.959,172.428 357.801,171.921L357.279,170.187C356.661,170.741 356.056,171.228 355.462,171.648C354.868,172.067 354.254,172.42 353.621,172.705C352.988,172.99 352.315,173.203 351.602,173.346C350.89,173.488 350.098,173.56 349.227,173.56C348.198,173.56 347.248,173.421 346.377,173.144C345.507,172.867 344.758,172.451 344.133,171.897C343.508,171.343 343.021,170.654 342.672,169.831C342.324,169.008 342.15,168.05 342.15,166.957C342.15,166.039 342.391,165.132 342.874,164.238C343.357,163.343 344.161,162.536 345.285,161.815C346.409,161.095 347.905,160.497 349.774,160.022C351.642,159.547 353.962,159.278 356.732,159.215L356.732,157.79C356.732,156.159 356.388,154.952 355.699,154.168C355.011,153.384 354.009,152.992 352.695,152.992C351.745,152.992 350.953,153.103 350.32,153.325C349.687,153.546 349.136,153.796 348.669,154.073C348.202,154.35 347.771,154.599 347.375,154.821C346.979,155.043 346.544,155.153 346.069,155.153C345.673,155.153 345.332,155.051 345.047,154.845C344.762,154.639 344.533,154.386 344.359,154.085L343.29,152.208C346.092,149.643 349.473,148.361 353.431,148.361C354.856,148.361 356.127,148.595 357.243,149.062C358.359,149.529 359.305,150.178 360.081,151.009C360.857,151.84 361.447,152.834 361.851,153.99C362.254,155.146 362.456,156.412 362.456,157.79L362.456,173.18ZM259.659,170.283L259.659,173.18L239.519,173.18L239.519,138.837L245.907,138.837L245.907,167.907L258.971,167.907C258.94,167.603 258.924,167.286 258.924,166.957C258.924,166.039 259.165,165.132 259.648,164.238C260.131,163.343 260.935,162.536 262.059,161.815C263.183,161.095 264.679,160.497 266.548,160.022C268.416,159.547 270.736,159.278 273.506,159.215L273.506,157.79C273.506,156.159 273.162,154.952 272.473,154.168C271.785,153.384 270.783,152.992 269.469,152.992C268.519,152.992 267.727,153.103 267.094,153.325C266.461,153.546 265.91,153.796 265.443,154.073C264.976,154.35 264.545,154.599 264.149,154.821C263.753,155.043 263.318,155.153 262.843,155.153C262.447,155.153 262.106,155.051 261.821,154.845C261.536,154.639 261.307,154.386 261.133,154.085L260.064,152.208C262.866,149.643 266.247,148.361 270.205,148.361C271.63,148.361 272.901,148.595 274.017,149.062C275.133,149.529 276.079,150.178 276.855,151.009C277.631,151.84 278.221,152.834 278.625,153.99C279.028,155.146 279.23,156.412 279.23,157.79L279.23,173.18L276.594,173.18C276.04,173.18 275.604,173.097 275.288,172.93C274.971,172.764 274.734,172.428 274.575,171.921L274.053,170.187C273.435,170.741 272.83,171.228 272.236,171.648C271.642,172.067 271.029,172.42 270.395,172.705C269.762,172.99 269.089,173.203 268.376,173.346C267.664,173.488 266.872,173.56 266.001,173.56C264.972,173.56 264.022,173.421 263.151,173.144C262.281,172.867 261.532,172.451 260.907,171.897C260.4,171.448 259.984,170.91 259.659,170.283ZM372.623,173.56C370.517,173.56 368.894,172.962 367.754,171.767C366.614,170.571 366.044,168.921 366.044,166.815L366.044,153.206L363.574,153.206C363.257,153.206 362.984,153.103 362.755,152.897C362.525,152.691 362.41,152.383 362.41,151.971L362.41,149.643L366.329,149.002L367.564,142.352C367.627,142.036 367.774,141.79 368.003,141.616C368.233,141.442 368.522,141.355 368.87,141.355L371.91,141.355L371.91,149.026L378.323,149.026L378.323,153.206L371.91,153.206L371.91,166.411C371.91,167.171 372.1,167.765 372.48,168.192C372.86,168.62 373.367,168.833 374,168.833C374.364,168.833 374.669,168.79 374.915,168.703C375.16,168.616 375.374,168.525 375.556,168.43C375.738,168.335 375.9,168.244 376.043,168.157C376.185,168.07 376.328,168.026 376.47,168.026C376.644,168.026 376.787,168.07 376.898,168.157C377.008,168.244 377.127,168.374 377.254,168.548L379.011,171.398C378.156,172.111 377.175,172.649 376.066,173.013C374.958,173.378 373.81,173.56 372.623,173.56ZM303.527,164.416C303.423,164.911 303.297,165.394 303.148,165.865C302.657,167.416 301.956,168.762 301.046,169.902C300.136,171.042 299.035,171.933 297.745,172.574C296.454,173.215 295.01,173.536 293.41,173.536C292.666,173.536 291.985,173.461 291.368,173.31C290.75,173.16 290.188,172.95 289.682,172.681C289.175,172.412 288.704,172.083 288.269,171.695C287.833,171.307 287.418,170.876 287.022,170.401L286.76,172.04C286.665,172.451 286.503,172.744 286.274,172.918C286.044,173.093 285.731,173.18 285.335,173.18L281.464,173.18L281.464,137.887L287.33,137.887L287.33,151.805C288.296,150.776 289.389,149.956 290.608,149.347C291.827,148.737 293.252,148.432 294.883,148.432C296.213,148.432 297.428,148.705 298.529,149.252C299.629,149.798 300.579,150.593 301.379,151.638C302.178,152.683 302.796,153.974 303.231,155.51C303.381,156.037 303.505,156.592 303.603,157.174C303.723,156.682 303.869,156.207 304.04,155.747C304.618,154.196 305.433,152.881 306.486,151.805C307.539,150.728 308.81,149.897 310.298,149.311C311.787,148.725 313.441,148.432 315.262,148.432C317.083,148.432 318.733,148.725 320.214,149.311C321.694,149.897 322.957,150.728 324.002,151.805C325.047,152.881 325.854,154.196 326.424,155.747C326.994,157.299 327.279,159.033 327.279,160.948C327.279,162.88 326.994,164.622 326.424,166.173C325.854,167.725 325.047,169.047 324.002,170.14C322.957,171.232 321.694,172.071 320.214,172.657C318.733,173.243 317.083,173.536 315.262,173.536C313.441,173.536 311.787,173.243 310.298,172.657C308.81,172.071 307.539,171.232 306.486,170.14C305.433,169.047 304.618,167.725 304.04,166.173C303.831,165.613 303.66,165.027 303.527,164.416ZM389.795,148.432C391.616,148.432 393.267,148.725 394.747,149.311C396.228,149.897 397.49,150.728 398.535,151.805C399.58,152.881 400.388,154.196 400.958,155.747C401.528,157.299 401.813,159.033 401.813,160.948C401.813,162.88 401.528,164.622 400.958,166.173C400.388,167.725 399.58,169.047 398.535,170.14C397.49,171.232 396.228,172.071 394.747,172.657C393.267,173.243 391.616,173.536 389.795,173.536C387.975,173.536 386.32,173.243 384.832,172.657C383.343,172.071 382.073,171.232 381.02,170.14C379.967,169.047 379.151,167.725 378.573,166.173C377.996,164.622 377.707,162.88 377.707,160.948C377.707,159.033 377.996,157.299 378.573,155.747C379.151,154.196 379.967,152.881 381.02,151.805C382.073,150.728 383.343,149.897 384.832,149.311C386.32,148.725 387.975,148.432 389.795,148.432ZM328.255,173.18L328.255,148.812L331.698,148.812C332.3,148.812 332.72,148.923 332.957,149.145C333.195,149.366 333.353,149.746 333.432,150.285L333.788,153.23C334.659,151.726 335.68,150.538 336.852,149.667C338.024,148.796 339.338,148.361 340.795,148.361C341.998,148.361 342.995,148.638 343.787,149.192L343.027,153.586C342.98,153.871 342.877,154.073 342.718,154.192C342.56,154.31 342.346,154.37 342.077,154.37C341.84,154.37 341.515,154.314 341.103,154.203C340.692,154.093 340.145,154.037 339.465,154.037C338.245,154.037 337.2,154.374 336.33,155.047C335.459,155.72 334.723,156.705 334.121,158.003L334.121,173.18L328.255,173.18ZM351.056,169.522C351.658,169.522 352.212,169.467 352.719,169.356C353.225,169.245 353.704,169.079 354.156,168.857C354.607,168.636 355.042,168.362 355.462,168.038C355.881,167.713 356.305,167.329 356.732,166.886L356.732,162.777C355.022,162.856 353.593,163.003 352.446,163.217C351.298,163.43 350.375,163.703 349.679,164.036C348.982,164.368 348.487,164.756 348.194,165.2C347.901,165.643 347.755,166.126 347.755,166.648C347.755,167.678 348.06,168.414 348.669,168.857C349.279,169.301 350.074,169.522 351.056,169.522ZM267.83,169.522C268.432,169.522 268.986,169.467 269.493,169.356C269.999,169.245 270.478,169.079 270.93,168.857C271.381,168.636 271.816,168.362 272.236,168.038C272.655,167.713 273.079,167.329 273.506,166.886L273.506,162.777C271.796,162.856 270.367,163.003 269.22,163.217C268.072,163.43 267.149,163.703 266.453,164.036C265.756,164.368 265.261,164.756 264.968,165.2C264.675,165.643 264.529,166.126 264.529,166.648C264.529,167.678 264.834,168.414 265.443,168.857C266.053,169.301 266.849,169.522 267.83,169.522ZM292.864,152.992C291.645,152.992 290.604,153.25 289.741,153.764C288.878,154.279 288.075,155.003 287.33,155.937L287.33,166.862C287.995,167.686 288.72,168.26 289.504,168.584C290.287,168.909 291.138,169.071 292.057,169.071C292.943,169.071 293.743,168.905 294.455,168.572C295.168,168.24 295.774,167.733 296.272,167.052C296.771,166.371 297.155,165.512 297.424,164.475C297.693,163.438 297.828,162.215 297.828,160.806C297.828,159.381 297.713,158.174 297.484,157.184C297.254,156.195 296.925,155.391 296.498,154.773C296.07,154.156 295.552,153.705 294.942,153.42C294.333,153.135 293.64,152.992 292.864,152.992ZM389.795,169.023C391.822,169.023 393.322,168.343 394.296,166.981C395.27,165.619 395.757,163.624 395.757,160.996C395.757,158.368 395.27,156.365 394.296,154.987C393.322,153.61 391.822,152.921 389.795,152.921C387.737,152.921 386.217,153.614 385.235,154.999C384.254,156.385 383.763,158.383 383.763,160.996C383.763,163.608 384.254,165.6 385.235,166.969C386.217,168.339 387.737,169.023 389.795,169.023ZM315.262,169.023C317.289,169.023 318.789,168.343 319.763,166.981C320.736,165.619 321.223,163.624 321.223,160.996C321.223,158.368 320.736,156.365 319.763,154.987C318.789,153.61 317.289,152.921 315.262,152.921C313.204,152.921 311.684,153.614 310.702,154.999C309.72,156.385 309.229,158.383 309.229,160.996C309.229,163.608 309.72,165.6 310.702,166.969C311.684,168.339 313.204,169.023 315.262,169.023ZM131.429,73.275C128.846,83.504 123.862,90.404 118.308,95.387C129,103.354 139.333,118.733 139.333,134.917L139.333,166.104L161.883,166.104L161.883,72.908C154.792,74.758 143.379,77.758 131.429,73.275ZM50.858,75.271L31.375,85.158L31.375,166.104L62.879,166.104C64.687,146.571 66.187,106.379 63.575,95.046C53.729,87.525 50.858,75.271 50.858,75.271ZM96.625,108.242C91.762,105.942 85.783,105.858 85.783,105.858L85.783,166.104L117.462,166.104L117.462,138.937C117.462,117.762 101.217,110.417 96.625,108.242ZM412.48,129.86L412.48,53.304L420.974,53.304C421.874,53.304 422.643,53.51 423.28,53.923C423.918,54.335 424.33,54.973 424.518,55.835L425.643,61.179C427.968,58.517 430.64,56.36 433.658,54.71C436.677,53.06 440.211,52.235 444.261,52.235C447.411,52.235 450.29,52.892 452.896,54.204C455.502,55.517 457.752,57.42 459.646,59.914C461.54,62.407 463.002,65.482 464.033,69.139C465.065,72.795 465.58,76.985 465.58,81.71C465.58,86.023 464.999,90.017 463.836,93.692C462.674,97.367 461.015,100.554 458.858,103.254C456.702,105.954 454.096,108.064 451.04,109.582C447.983,111.101 444.561,111.86 440.774,111.86C437.511,111.86 434.746,111.364 432.477,110.37C430.208,109.376 428.174,107.998 426.374,106.235L426.374,129.86L412.48,129.86ZM935.843,105.697L936.522,106.798C934.497,108.485 932.172,109.76 929.547,110.623C926.922,111.485 924.203,111.917 921.391,111.917C916.403,111.917 912.56,110.501 909.86,107.67C907.16,104.839 905.81,100.929 905.81,95.942L905.81,63.71L899.96,63.71C899.21,63.71 898.563,63.467 898.019,62.979C897.475,62.492 897.203,61.76 897.203,60.785L897.203,55.273L906.485,53.754L909.41,38.004C909.56,37.254 909.907,36.673 910.45,36.26C910.994,35.848 911.678,35.642 912.503,35.642L919.703,35.642L919.703,53.81L934.891,53.81L934.891,63.71L919.703,63.71L919.703,94.985C919.703,96.785 920.153,98.192 921.053,99.204C921.953,100.217 923.153,100.723 924.653,100.723C925.516,100.723 926.238,100.62 926.819,100.414C927.4,100.207 927.907,99.992 928.338,99.767C928.769,99.542 929.153,99.326 929.491,99.12C929.828,98.914 930.166,98.81 930.503,98.81C930.916,98.81 931.253,98.914 931.516,99.12C931.778,99.326 932.06,99.635 932.36,100.048L935.058,104.424L938.018,99.542C938.431,98.904 938.918,98.417 939.481,98.079C940.043,97.742 940.756,97.573 941.618,97.573C942.481,97.573 943.297,97.817 944.065,98.304C944.834,98.792 945.725,99.317 946.737,99.879C947.75,100.442 948.94,100.967 950.309,101.454C951.678,101.942 953.412,102.185 955.512,102.185C957.162,102.185 958.578,101.989 959.759,101.595C960.94,101.201 961.915,100.685 962.684,100.048C963.453,99.41 964.015,98.67 964.372,97.826C964.728,96.982 964.906,96.11 964.906,95.21C964.906,93.86 964.503,92.754 963.697,91.892C962.89,91.029 961.822,90.279 960.49,89.642C959.159,89.004 957.64,88.432 955.934,87.926C954.228,87.42 952.484,86.867 950.703,86.267C948.922,85.667 947.178,84.964 945.472,84.157C943.765,83.351 942.247,82.329 940.915,81.092C939.584,79.854 938.515,78.335 937.709,76.535C936.903,74.735 936.5,72.56 936.5,70.01C936.5,67.648 936.968,65.398 937.906,63.26C938.843,61.123 940.222,59.257 942.04,57.664C943.859,56.07 946.128,54.795 948.847,53.839C951.565,52.882 954.706,52.404 958.268,52.404C962.243,52.404 965.862,53.06 969.125,54.373C972.387,55.685 975.106,57.41 977.281,59.548L974.131,64.554C973.756,65.154 973.362,65.576 972.95,65.82C972.537,66.064 972.012,66.185 971.375,66.185C970.7,66.185 969.978,65.998 969.209,65.623C968.44,65.248 967.55,64.826 966.537,64.357C965.525,63.889 964.372,63.467 963.078,63.092C961.784,62.717 960.256,62.529 958.493,62.529C955.756,62.529 953.6,63.11 952.025,64.273C950.45,65.435 949.662,66.954 949.662,68.829C949.662,70.067 950.065,71.107 950.872,71.951C951.678,72.795 952.747,73.535 954.078,74.173C955.409,74.81 956.918,75.382 958.606,75.889C960.293,76.395 962.018,76.948 963.781,77.548C965.543,78.148 967.268,78.832 968.956,79.601C970.643,80.37 972.153,81.345 973.484,82.526C974.815,83.707 975.884,85.123 976.69,86.773C977.497,88.423 977.9,90.41 977.9,92.735C977.9,95.51 977.393,98.07 976.381,100.414C975.368,102.757 973.887,104.782 971.937,106.489C969.987,108.195 967.578,109.526 964.709,110.482C961.84,111.439 958.55,111.917 954.837,111.917C952.85,111.917 950.909,111.739 949.015,111.382C947.122,111.026 945.303,110.529 943.559,109.892C941.815,109.254 940.203,108.504 938.722,107.642C937.673,107.031 936.713,106.383 935.843,105.697ZM598.745,28.779C602.045,28.779 604.998,29.285 607.605,30.298C610.211,31.31 612.442,32.66 614.298,34.348C616.155,36.035 617.617,37.967 618.686,40.142C619.755,42.317 620.383,44.567 620.57,46.892L611.739,48.748C611.627,48.785 611.505,48.804 611.373,48.804L611.008,48.804C610.37,48.804 609.798,48.626 609.292,48.27C608.786,47.914 608.383,47.36 608.083,46.61C607.745,45.635 607.314,44.707 606.789,43.826C606.264,42.945 605.627,42.176 604.877,41.52C604.127,40.864 603.245,40.339 602.233,39.945C601.22,39.551 600.058,39.354 598.745,39.354C597.17,39.354 595.764,39.626 594.527,40.17C593.289,40.714 592.239,41.445 591.377,42.364C590.514,43.282 589.858,44.351 589.408,45.57C588.958,46.789 588.733,48.073 588.733,49.423C588.733,50.548 588.855,51.635 589.098,52.685C589.342,53.735 589.727,54.785 590.252,55.835C590.777,56.885 591.461,57.964 592.305,59.07C593.148,60.176 594.189,61.367 595.427,62.642L617.027,85.085C618.264,82.723 619.258,80.229 620.008,77.604C620.758,74.979 621.245,72.317 621.47,69.617C621.545,68.754 621.827,68.06 622.314,67.535C622.802,67.01 623.477,66.748 624.339,66.748L633.058,66.748C633.02,71.698 632.308,76.423 630.92,80.923C629.533,85.423 627.545,89.567 624.958,93.354L642.002,111.017L628.389,111.017C627.677,111.017 627.048,110.979 626.505,110.904C625.961,110.829 625.445,110.689 624.958,110.482C624.47,110.276 624.002,110.004 623.552,109.667C623.102,109.329 622.633,108.898 622.145,108.373L616.52,102.579C612.92,105.504 608.917,107.792 604.511,109.442C600.105,111.092 595.333,111.917 590.195,111.917C587.045,111.917 583.97,111.382 580.97,110.314C577.97,109.245 575.289,107.698 572.927,105.673C570.564,103.648 568.661,101.201 567.217,98.332C565.773,95.464 565.052,92.229 565.052,88.629C565.052,86.117 565.464,83.726 566.289,81.457C567.114,79.189 568.258,77.079 569.72,75.129C571.183,73.179 572.917,71.417 574.923,69.842C576.93,68.267 579.133,66.917 581.533,65.792C579.545,62.979 578.092,60.232 577.173,57.551C576.255,54.87 575.795,52.198 575.795,49.535C575.795,46.723 576.311,44.051 577.342,41.52C578.373,38.989 579.873,36.785 581.842,34.91C583.811,33.035 586.22,31.545 589.07,30.439C591.92,29.332 595.145,28.779 598.745,28.779ZM324.438,52.404C328.075,52.404 331.422,52.985 334.478,54.148C337.535,55.31 340.169,57.007 342.382,59.239C344.594,61.47 346.319,64.207 347.557,67.451C348.794,70.695 349.413,74.398 349.413,78.56C349.413,79.61 349.366,80.482 349.272,81.176C349.178,81.87 349.01,82.414 348.766,82.807C348.522,83.201 348.194,83.482 347.782,83.651C347.369,83.82 346.844,83.904 346.207,83.904L310.544,83.904C310.957,89.829 312.55,94.179 315.325,96.954C318.1,99.729 321.775,101.117 326.35,101.117C328.6,101.117 330.541,100.854 332.172,100.329C333.803,99.804 335.228,99.223 336.447,98.585C337.666,97.948 338.735,97.367 339.653,96.842C340.572,96.317 341.463,96.054 342.325,96.054C342.888,96.054 343.375,96.167 343.788,96.392C344.2,96.617 344.557,96.935 344.857,97.348L348.907,102.41C347.369,104.21 345.644,105.72 343.732,106.939C341.819,108.157 339.822,109.132 337.741,109.864C335.66,110.595 333.541,111.11 331.385,111.41C329.228,111.71 327.138,111.86 325.113,111.86C321.1,111.86 317.369,111.195 313.919,109.864C310.469,108.532 307.469,106.564 304.919,103.957C302.369,101.351 300.363,98.126 298.9,94.282C297.438,90.439 296.707,85.985 296.707,80.923C296.707,76.985 297.344,73.282 298.619,69.814C299.894,66.345 301.722,63.326 304.103,60.757C306.485,58.189 309.391,56.154 312.822,54.654C316.253,53.154 320.125,52.404 324.438,52.404ZM518.241,52.404C521.879,52.404 525.226,52.985 528.282,54.148C531.338,55.31 533.973,57.007 536.185,59.239C538.398,61.47 540.123,64.207 541.36,67.451C542.598,70.695 543.216,74.398 543.216,78.56C543.216,79.61 543.169,80.482 543.076,81.176C542.982,81.87 542.813,82.414 542.569,82.807C542.326,83.201 541.998,83.482 541.585,83.651C541.173,83.82 540.648,83.904 540.01,83.904L504.348,83.904C504.76,89.829 506.354,94.179 509.129,96.954C511.904,99.729 515.579,101.117 520.154,101.117C522.404,101.117 524.344,100.854 525.976,100.329C527.607,99.804 529.032,99.223 530.251,98.585C531.469,97.948 532.538,97.367 533.457,96.842C534.376,96.317 535.266,96.054 536.129,96.054C536.691,96.054 537.179,96.167 537.591,96.392C538.004,96.617 538.36,96.935 538.66,97.348L542.71,102.41C541.173,104.21 539.448,105.72 537.535,106.939C535.623,108.157 533.626,109.132 531.544,109.864C529.463,110.595 527.344,111.11 525.188,111.41C523.032,111.71 520.941,111.86 518.916,111.86C514.904,111.86 511.173,111.195 507.723,109.864C504.273,108.532 501.273,106.564 498.723,103.957C496.173,101.351 494.166,98.126 492.704,94.282C491.241,90.439 490.51,85.985 490.51,80.923C490.51,76.985 491.148,73.282 492.423,69.814C493.698,66.345 495.526,63.326 497.907,60.757C500.288,58.189 503.194,56.154 506.626,54.654C510.057,53.154 513.929,52.404 518.241,52.404ZM786.717,111.017L786.717,27.429L800.611,27.429L800.611,60.392C802.899,57.954 805.486,56.014 808.374,54.57C811.261,53.126 814.636,52.404 818.499,52.404C821.649,52.404 824.527,53.051 827.133,54.345C829.739,55.639 831.989,57.523 833.883,59.998C835.777,62.473 837.239,65.529 838.27,69.167C839.302,72.804 839.817,76.985 839.817,81.71C839.817,86.023 839.236,90.017 838.074,93.692C836.911,97.367 835.252,100.554 833.095,103.254C830.939,105.954 828.333,108.064 825.277,109.582C822.22,111.101 818.799,111.86 815.011,111.86C813.249,111.86 811.636,111.682 810.174,111.326C808.711,110.97 807.38,110.473 806.18,109.835C804.98,109.198 803.864,108.42 802.833,107.501C801.802,106.582 800.817,105.56 799.88,104.435L799.261,108.317C799.036,109.292 798.652,109.985 798.108,110.398C797.564,110.81 796.824,111.017 795.886,111.017L786.717,111.017ZM753.327,52.404C757.64,52.404 761.549,53.098 765.056,54.485C768.562,55.873 771.552,57.842 774.027,60.392C776.502,62.942 778.415,66.054 779.765,69.729C781.115,73.404 781.79,77.51 781.79,82.048C781.79,86.623 781.115,90.748 779.765,94.423C778.415,98.098 776.502,101.229 774.027,103.817C771.552,106.404 768.562,108.392 765.056,109.779C761.549,111.167 757.64,111.86 753.327,111.86C749.015,111.86 745.096,111.167 741.571,109.779C738.046,108.392 735.037,106.404 732.543,103.817C730.049,101.229 728.118,98.098 726.749,94.423C725.381,90.748 724.696,86.623 724.696,82.048C724.696,77.51 725.381,73.404 726.749,69.729C728.118,66.054 730.049,62.942 732.543,60.392C735.037,57.842 738.046,55.873 741.571,54.485C745.096,53.098 749.015,52.404 753.327,52.404ZM869.214,52.404C873.526,52.404 877.435,53.098 880.942,54.485C884.448,55.873 887.439,57.842 889.914,60.392C892.389,62.942 894.301,66.054 895.651,69.729C897.001,73.404 897.676,77.51 897.676,82.048C897.676,86.623 897.001,90.748 895.651,94.423C894.301,98.098 892.389,101.229 889.914,103.817C887.439,106.404 884.448,108.392 880.942,109.779C877.435,111.167 873.526,111.86 869.214,111.86C864.901,111.86 860.982,111.167 857.457,109.779C853.932,108.392 850.923,106.404 848.429,103.817C845.935,101.229 844.004,98.098 842.635,94.423C841.267,90.748 840.582,86.623 840.582,82.048C840.582,77.51 841.267,73.404 842.635,69.729C844.004,66.054 845.935,62.942 848.429,60.392C850.923,57.842 853.932,55.873 857.457,54.485C860.982,53.098 864.901,52.404 869.214,52.404ZM379.259,52.404C383.572,52.404 387.481,53.098 390.987,54.485C394.493,55.873 397.484,57.842 399.959,60.392C402.434,62.942 404.347,66.054 405.697,69.729C407.047,73.404 407.722,77.51 407.722,82.048C407.722,86.623 407.047,90.748 405.697,94.423C404.347,98.098 402.434,101.229 399.959,103.817C397.484,106.404 394.493,108.392 390.987,109.779C387.481,111.167 383.572,111.86 379.259,111.86C374.947,111.86 371.028,111.167 367.503,109.779C363.978,108.392 360.968,106.404 358.475,103.817C355.981,101.229 354.05,98.098 352.681,94.423C351.312,90.748 350.628,86.623 350.628,82.048C350.628,77.51 351.312,73.404 352.681,69.729C354.05,66.054 355.981,62.942 358.475,60.392C360.968,57.842 363.978,55.873 367.503,54.485C371.028,53.098 374.947,52.404 379.259,52.404ZM484.795,27.429L484.795,111.017L470.901,111.017L470.901,27.429L484.795,27.429ZM677.525,79.235L677.525,111.017L662.394,111.017L662.394,29.679L687.2,29.679C692.75,29.679 697.503,30.251 701.459,31.395C705.416,32.539 708.659,34.142 711.191,36.204C713.722,38.267 715.578,40.732 716.759,43.601C717.941,46.47 718.531,49.629 718.531,53.079C718.531,55.817 718.128,58.404 717.322,60.842C716.516,63.279 715.353,65.492 713.834,67.479C712.316,69.467 710.441,71.21 708.209,72.71C705.978,74.21 703.437,75.41 700.587,76.31C702.5,77.398 704.15,78.954 705.537,80.979L725.9,111.017L712.287,111.017C710.975,111.017 709.859,110.754 708.941,110.229C708.022,109.704 707.244,108.954 706.606,107.979L689.506,81.935C688.869,80.96 688.166,80.267 687.397,79.854C686.628,79.442 685.494,79.235 683.994,79.235L677.525,79.235ZM254.485,82.385L254.485,111.017L239.354,111.017L239.354,29.679L265.848,29.679C271.285,29.679 275.992,30.317 279.967,31.592C283.942,32.867 287.223,34.648 289.81,36.935C292.398,39.223 294.31,41.96 295.548,45.148C296.785,48.335 297.404,51.823 297.404,55.61C297.404,59.548 296.748,63.157 295.435,66.439C294.123,69.72 292.154,72.542 289.529,74.904C286.904,77.267 283.623,79.104 279.685,80.417C275.748,81.729 271.135,82.385 265.848,82.385L254.485,82.385ZM439.48,63.204C436.593,63.204 434.127,63.814 432.083,65.032C430.04,66.251 428.136,67.967 426.374,70.179L426.374,96.054C427.949,98.004 429.665,99.364 431.521,100.132C433.377,100.901 435.374,101.285 437.511,101.285C439.611,101.285 441.515,100.892 443.221,100.104C444.927,99.317 446.371,98.117 447.552,96.504C448.733,94.892 449.643,92.857 450.28,90.401C450.918,87.945 451.236,85.048 451.236,81.71C451.236,78.335 450.965,75.476 450.421,73.132C449.877,70.789 449.099,68.885 448.086,67.423C447.074,65.96 445.846,64.892 444.402,64.217C442.958,63.542 441.318,63.204 439.48,63.204ZM813.717,63.204C810.83,63.204 808.364,63.814 806.32,65.032C804.277,66.251 802.374,67.967 800.611,70.179L800.611,96.054C802.186,98.004 803.902,99.364 805.758,100.132C807.614,100.901 809.63,101.285 811.805,101.285C813.905,101.285 815.799,100.892 817.486,100.104C819.174,99.317 820.608,98.117 821.789,96.504C822.97,94.892 823.88,92.857 824.517,90.401C825.155,87.945 825.474,85.048 825.474,81.71C825.474,78.335 825.202,75.476 824.658,73.132C824.114,70.789 823.336,68.885 822.324,67.423C821.311,65.96 820.083,64.892 818.639,64.217C817.195,63.542 815.555,63.204 813.717,63.204ZM869.214,101.173C874.014,101.173 877.567,99.56 879.873,96.335C882.179,93.11 883.332,88.385 883.332,82.16C883.332,75.935 882.179,71.192 879.873,67.929C877.567,64.667 874.014,63.035 869.214,63.035C864.339,63.035 860.739,64.676 858.414,67.957C856.089,71.239 854.926,75.973 854.926,82.16C854.926,88.348 856.089,93.064 858.414,96.307C860.739,99.551 864.339,101.173 869.214,101.173ZM379.259,101.173C384.059,101.173 387.612,99.56 389.918,96.335C392.225,93.11 393.378,88.385 393.378,82.16C393.378,75.935 392.225,71.192 389.918,67.929C387.612,64.667 384.059,63.035 379.259,63.035C374.384,63.035 370.784,64.676 368.459,67.957C366.134,71.239 364.972,75.973 364.972,82.16C364.972,88.348 366.134,93.064 368.459,96.307C370.784,99.551 374.384,101.173 379.259,101.173ZM753.327,101.173C758.127,101.173 761.681,99.56 763.987,96.335C766.293,93.11 767.446,88.385 767.446,82.16C767.446,75.935 766.293,71.192 763.987,67.929C761.681,64.667 758.127,63.035 753.327,63.035C748.452,63.035 744.852,64.676 742.527,67.957C740.202,71.239 739.04,75.973 739.04,82.16C739.04,88.348 740.202,93.064 742.527,96.307C744.852,99.551 748.452,101.173 753.327,101.173ZM579.17,87.504C579.17,89.567 579.527,91.423 580.239,93.073C580.952,94.723 581.927,96.12 583.164,97.264C584.402,98.407 585.836,99.289 587.467,99.907C589.098,100.526 590.833,100.835 592.67,100.835C595.97,100.835 598.98,100.32 601.698,99.289C604.417,98.257 606.902,96.823 609.152,94.985L587.777,73.048C584.777,74.998 582.592,77.192 581.223,79.629C579.855,82.067 579.17,84.692 579.17,87.504ZM21.734,84.065C21.734,78.064 16.872,73.194 10.867,73.194C4.866,73.194 0,78.064 0,84.065C0,90.067 4.866,94.937 10.867,94.937C16.872,94.937 21.734,90.067 21.734,84.065ZM518.523,62.36C514.473,62.36 511.304,63.504 509.016,65.792C506.729,68.079 505.266,71.323 504.629,75.523L530.729,75.523C530.729,73.723 530.485,72.026 529.998,70.432C529.51,68.839 528.76,67.442 527.748,66.242C526.735,65.042 525.46,64.095 523.923,63.401C522.385,62.707 520.585,62.36 518.523,62.36ZM324.719,62.36C320.669,62.36 317.5,63.504 315.213,65.792C312.925,68.079 311.463,71.323 310.825,75.523L336.925,75.523C336.925,73.723 336.682,72.026 336.194,70.432C335.707,68.839 334.957,67.442 333.944,66.242C332.932,65.042 331.657,64.095 330.119,63.401C328.582,62.707 326.782,62.36 324.719,62.36ZM189.203,61.387C189.203,55.377 184.345,50.516 178.332,50.516C172.327,50.516 167.465,55.377 167.465,61.387C167.465,67.388 172.327,72.25 178.332,72.25C184.345,72.25 189.203,67.388 189.203,61.387ZM254.485,70.573L265.848,70.573C268.623,70.573 271.042,70.226 273.104,69.532C275.167,68.839 276.873,67.845 278.223,66.551C279.573,65.257 280.585,63.682 281.26,61.826C281.935,59.97 282.273,57.898 282.273,55.61C282.273,53.435 281.935,51.467 281.26,49.704C280.585,47.942 279.573,46.442 278.223,45.204C276.873,43.967 275.167,43.02 273.104,42.364C271.042,41.707 268.623,41.379 265.848,41.379L254.485,41.379L254.485,70.573ZM677.525,68.379L686.975,68.379C689.825,68.379 692.309,68.023 694.428,67.31C696.547,66.598 698.291,65.614 699.659,64.357C701.028,63.101 702.05,61.61 702.725,59.885C703.4,58.16 703.737,56.267 703.737,54.204C703.737,50.079 702.378,46.91 699.659,44.698C696.941,42.485 692.787,41.379 687.2,41.379L677.525,41.379L677.525,68.379ZM61.971,34.912L31.375,34.912L31.375,63.517L51.054,53.046C51.054,53.046 54.117,40.967 61.971,34.912ZM119.971,34.912C124.629,39.821 128.267,45.183 130.375,51.7C140.883,58.812 154.554,55.267 161.883,54.208L161.883,34.912L119.971,34.912ZM104.277,17.348C104.277,7.767 96.506,-0 86.924,-0C77.347,-0 69.588,7.767 69.588,17.348C69.588,26.925 77.347,34.696 86.924,34.696C96.506,34.696 104.277,26.925 104.277,17.348Z" style="fill-rule:nonzero;"/>
    </g>
</svg>
