<?xml version="1.0" encoding="UTF-8" standalone="no"?>
<!DOCTYPE svg PUBLIC "-//W3C//DTD SVG 1.1//EN" "http://www.w3.org/Graphics/SVG/1.1/DTD/svg11.dtd">
<svg width="100%" height="100%" viewBox="0 0 5906 5906" version="1.1" xmlns="http://www.w3.org/2000/svg" xmlns:xlink="http://www.w3.org/1999/xlink" xml:space="preserve" style="fill-rule:evenodd;clip-rule:evenodd;stroke-linejoin:round;stroke-miterlimit:2;">
    <path d="M4379.26,5526.25C3956.33,5768.23 3470.1,5906 2953,5906C1323.19,5906 0,4537.35 0,2851.57C0,2249.16 168.962,1687.26 460.535,1213.78L0,737.018L2311.98,667.793L2243.1,3059.13L1558.1,2350C1505.23,2507.16 1476.5,2675.92 1476.5,2851.57C1476.5,3694.46 2138.1,4378.78 2953,4378.78C3059.29,4378.78 3162.96,4367.14 3262.9,4345.03L3222.7,5540.61L4379.26,5526.25Z"/>
    <g transform="matrix(-1,-1.22465e-16,1.22465e-16,-1,5906,5906)">
        <path d="M4379.26,5526.25C3956.33,5768.23 3470.1,5906 2953,5906C1323.19,5906 0,4537.35 0,2851.57C0,2249.16 168.962,1687.26 460.535,1213.78L0,737.018L2311.98,667.793L2243.1,3059.13L1558.1,2350C1505.23,2507.16 1476.5,2675.92 1476.5,2851.57C1476.5,3694.46 2138.1,4378.78 2953,4378.78C3059.29,4378.78 3162.96,4367.14 3262.9,4345.03L3222.7,5540.61L4379.26,5526.25Z"/>
    </g>
</svg>
