<?xml version="1.0" encoding="UTF-8" standalone="no"?>
<!DOCTYPE svg PUBLIC "-//W3C//DTD SVG 1.1//EN" "http://www.w3.org/Graphics/SVG/1.1/DTD/svg11.dtd">
<svg width="100%" height="100%" viewBox="0 0 5906 5906" version="1.1" xmlns="http://www.w3.org/2000/svg" xmlns:xlink="http://www.w3.org/1999/xlink" xml:space="preserve" style="fill-rule:evenodd;clip-rule:evenodd;stroke-linejoin:round;stroke-miterlimit:2;">
    <g transform="matrix(1.01822,0,0,1.01822,7.05764,-98.5598)">
        <path d="M3033.85,5882.99L3623.11,5882.99C3758.62,5882.99 3868.64,5772.98 3868.64,5637.47C3868.64,5501.96 3758.62,5391.94 3623.11,5391.94L3033.85,5391.94C2898.34,5391.94 2788.32,5501.96 2788.32,5637.47C2788.32,5772.98 2898.34,5882.99 3033.85,5882.99ZM4213.48,5391.97L4212.37,5391.94C4076.86,5391.94 3966.85,5501.96 3966.85,5637.47C3966.85,5772.98 4076.86,5882.99 4212.37,5882.99L4213.48,5882.99C4455.08,5882.99 4683.96,5828.09 4888.39,5730.23C5010.61,5671.71 5062.34,5524.98 5003.82,5402.75C4945.31,5280.53 4798.57,5228.8 4676.35,5287.32C4536.16,5354.43 4379.16,5391.94 4213.48,5391.94L4213.48,5391.97ZM1855.33,5882.99L2444.59,5882.99C2580.1,5882.99 2690.11,5772.98 2690.11,5637.47C2690.11,5501.96 2580.1,5391.94 2444.59,5391.94L1855.33,5391.94C1719.82,5391.94 1609.8,5501.96 1609.8,5637.47C1609.8,5772.98 1719.82,5882.99 1855.33,5882.99ZM589.941,5535.7C769.14,5680.46 980.878,5786.48 1212.36,5841.15C1344.24,5872.3 1476.6,5790.51 1507.74,5658.63C1538.89,5526.75 1457.1,5394.39 1325.22,5363.24C1166.51,5325.76 1021.38,5252.97 898.511,5153.71C793.099,5068.56 638.384,5085.01 553.232,5190.42C468.079,5295.83 484.528,5450.55 589.941,5535.7ZM5431.7,5300.56C5576.51,5121.4 5682.59,4909.69 5737.32,4678.23C5768.51,4546.36 5686.76,4413.98 5554.89,4382.8C5423.01,4351.61 5290.63,4433.36 5259.45,4565.23C5221.92,4723.93 5149.09,4869.04 5049.8,4991.89C4964.61,5097.27 4981.02,5251.99 5086.41,5337.18C5191.8,5422.36 5346.52,5405.95 5431.7,5300.56ZM7.195,4317.23L7.17,4317.21C7.17,4558.96 62.14,4787.98 160.124,4992.51C218.672,5114.72 365.423,5166.4 487.631,5107.85C609.84,5049.3 661.524,4902.55 602.977,4780.35C535.781,4640.09 498.221,4483 498.221,4317.21L498.196,4317.23L498.221,4316.47C498.221,4180.96 388.205,4070.94 252.696,4070.94C117.186,4070.94 7.17,4180.96 7.17,4316.47L7.195,4317.23ZM5779.27,4035.21L5779.27,3445.94C5779.27,3310.43 5669.25,3200.42 5533.74,3200.42C5398.23,3200.42 5288.22,3310.43 5288.22,3445.94L5288.22,4035.21C5288.22,4170.72 5398.23,4280.73 5533.74,4280.73C5669.25,4280.73 5779.27,4170.72 5779.27,4035.21ZM7.17,3137.95L7.17,3727.21C7.17,3862.72 117.186,3972.73 252.696,3972.73C388.205,3972.73 498.221,3862.72 498.221,3727.21L498.221,3137.95C498.221,3002.44 388.205,2892.42 252.696,2892.42C117.186,2892.42 7.17,3002.44 7.17,3137.95ZM5779.27,2856.68L5779.27,2267.42C5779.27,2131.91 5669.25,2021.89 5533.74,2021.89C5398.23,2021.89 5288.22,2131.91 5288.22,2267.42L5288.22,2856.68C5288.22,2992.19 5398.23,3102.21 5533.74,3102.21C5669.25,3102.21 5779.27,2992.19 5779.27,2856.68ZM7.17,1959.42L7.17,2548.68C7.17,2684.19 117.186,2794.21 252.696,2794.21C388.205,2794.21 498.221,2684.19 498.221,2548.68L498.221,1959.42C498.221,1823.91 388.205,1713.89 252.696,1713.89C117.186,1713.89 7.17,1823.91 7.17,1959.42ZM5288.22,1676.68L5288.22,1678.16C5288.22,1813.67 5398.23,1923.68 5533.74,1923.68C5669.25,1923.68 5779.27,1813.67 5779.27,1678.16L5779.27,1676.68L5778.62,1631.45C5772.21,1406.05 5718.02,1192.52 5625.93,1000.59C5567.32,878.417 5420.54,826.815 5298.36,885.431C5176.19,944.047 5124.58,1090.83 5183.2,1213C5250.56,1353.4 5288.22,1510.68 5288.22,1676.68ZM354.188,694.007C209.482,873.244 103.518,1085.01 48.914,1316.51C17.805,1448.4 99.626,1580.73 231.516,1611.84C363.406,1642.95 495.741,1561.13 526.85,1429.24C564.289,1270.51 637.045,1125.37 736.262,1002.47C821.385,897.036 804.894,742.326 699.457,657.202C594.021,572.079 439.311,588.571 354.188,694.007ZM5195.81,457.639C5016.54,312.986 4804.74,207.08 4573.23,152.54C4441.33,121.468 4309.02,203.327 4277.94,335.226C4246.87,467.124 4328.73,599.436 4460.63,630.508C4619.37,667.903 4764.54,740.618 4887.46,839.8C4992.92,924.893 5147.62,908.359 5232.72,802.898C5317.81,697.438 5301.27,542.733 5195.81,457.639ZM1572.96,110.906L1572.96,110.897C1331.05,110.897 1101.89,165.937 897.263,264.04C775.071,322.621 723.427,469.387 782.009,591.579C840.591,713.771 987.356,765.415 1109.55,706.833C1249.88,639.557 1407.06,601.948 1572.96,601.948L1573.33,601.948C1708.84,601.948 1818.85,491.932 1818.85,356.423C1818.85,220.913 1708.84,110.897 1573.33,110.897L1572.96,110.906ZM3930.37,110.897L3341.11,110.897C3205.6,110.897 3095.59,220.913 3095.59,356.423C3095.59,491.932 3205.6,601.948 3341.11,601.948L3930.37,601.948C4065.88,601.948 4175.9,491.932 4175.9,356.423C4175.9,220.913 4065.88,110.897 3930.37,110.897ZM2751.85,110.897L2162.59,110.897C2027.08,110.897 1917.06,220.913 1917.06,356.423C1917.06,491.932 2027.08,601.948 2162.59,601.948L2751.85,601.948C2887.36,601.948 2997.38,491.932 2997.38,356.423C2997.38,220.913 2887.36,110.897 2751.85,110.897Z"/>
    </g>
</svg>
