<?xml version="1.0" encoding="UTF-8" standalone="no"?>
<!DOCTYPE svg PUBLIC "-//W3C//DTD SVG 1.1//EN" "http://www.w3.org/Graphics/SVG/1.1/DTD/svg11.dtd">
<svg width="100%" height="100%" viewBox="0 0 800 800" version="1.1" xmlns="http://www.w3.org/2000/svg" xmlns:xlink="http://www.w3.org/1999/xlink" xml:space="preserve" style="fill-rule:evenodd;clip-rule:evenodd;stroke-linejoin:round;stroke-miterlimit:2;">
    <path d="M800,201.754C800,132.229 743.555,75.784 674.03,75.784L125.97,75.784C56.445,75.784 0,132.229 0,201.754L0,598.246C0,667.771 56.445,724.216 125.97,724.216L674.03,724.216C743.555,724.216 800,667.771 800,598.246L800,201.754ZM45.094,561.28L166.069,666.767C172.78,672.619 182.138,674.369 190.51,671.338L348.744,614.056C355.321,611.675 360.566,606.597 363.159,600.102L457.334,364.178C457.334,364.178 518.797,425.83 518.797,425.83C524.474,431.525 532.584,434.071 540.497,432.644C548.41,431.216 555.119,425.997 558.449,418.677L616.009,292.141C645.257,276.923 750.113,222.365 750.113,222.365C762.108,216.123 766.779,201.317 760.538,189.322C754.297,177.327 739.491,172.655 727.495,178.897L585.898,252.573C581.042,255.1 577.172,259.18 574.905,264.162L528.505,366.165C528.505,366.165 465.739,303.206 465.739,303.206C459.917,297.367 451.549,294.847 443.472,296.502C435.394,298.156 428.69,303.763 425.634,311.42L321.727,571.724C321.727,571.724 187.398,620.353 187.398,620.353C187.398,620.353 77.298,524.349 77.298,524.349C67.106,515.462 51.617,516.521 42.73,526.713C33.843,536.904 34.903,552.394 45.094,561.28Z"/>
</svg>
