<?xml version="1.0" encoding="UTF-8" standalone="no"?>
<!DOCTYPE svg PUBLIC "-//W3C//DTD SVG 1.1//EN" "http://www.w3.org/Graphics/SVG/1.1/DTD/svg11.dtd">
<svg width="100%" height="100%" viewBox="0 0 800 800" version="1.1" xmlns="http://www.w3.org/2000/svg" xmlns:xlink="http://www.w3.org/1999/xlink" xml:space="preserve" style="fill-rule:evenodd;clip-rule:evenodd;stroke-linejoin:round;stroke-miterlimit:2;">
    <g transform="matrix(1.07409,0,0,1.06898,-29.6361,7.59556e-15)">
        <path d="M347.286,55.593C347.228,54.704 347.199,53.808 347.199,52.906L347.199,41.084C347.199,18.409 365.608,-0 388.283,-0L406.082,-0C428.756,-0 447.165,18.409 447.165,41.084L447.165,52.906C447.165,53.536 447.151,54.163 447.123,54.789C617.141,77.817 748.377,223.703 748.377,400C748.377,592.275 592.275,748.377 400,748.377C207.725,748.377 51.623,592.275 51.623,400C51.623,315.092 82.064,237.237 132.612,176.774L125.106,167.983C110.346,150.698 112.396,124.681 129.682,109.921L143.252,98.333C160.538,83.574 186.554,85.624 201.314,102.91L207.233,109.841C248.566,82.312 296.1,63.377 347.286,55.593ZM365.828,406.931C365.709,412.055 368.029,417.151 372.491,420.379L490.375,505.657C497.58,510.87 507.661,509.252 512.874,502.046L531.762,475.937C536.974,468.731 535.356,458.65 528.151,453.438C528.151,453.438 435.013,391.429 431.895,382.512C427.714,370.553 430.275,162.881 430.275,162.881C430.275,153.989 423.055,146.769 414.162,146.769L381.937,146.769C373.044,146.769 365.824,153.989 365.824,162.881L365.824,406.551C365.824,406.678 365.825,406.805 365.828,406.931Z"/>
    </g>
</svg>
