<?xml version="1.0" encoding="UTF-8" standalone="no"?>
<!DOCTYPE svg PUBLIC "-//W3C//DTD SVG 1.1//EN" "http://www.w3.org/Graphics/SVG/1.1/DTD/svg11.dtd">
<svg width="100%" height="100%" viewBox="0 0 800 800" version="1.1" xmlns="http://www.w3.org/2000/svg" xmlns:xlink="http://www.w3.org/1999/xlink" xml:space="preserve" style="fill-rule:evenodd;clip-rule:evenodd;stroke-linejoin:round;stroke-miterlimit:2;">
    <path d="M400,0C620.766,0 800,179.234 800,400C800,620.766 620.766,800 400,800C179.234,800 -0,620.766 -0,400C-0,179.234 179.234,0 400,0ZM367.757,134.887C372.82,121.472 385.661,112.593 400,112.593C414.339,112.593 427.18,121.472 432.243,134.887L487.416,281.07C488.032,282.704 489.114,284.122 490.527,285.149C491.94,286.175 493.623,286.766 495.368,286.847L651.445,294.147C665.769,294.817 678.181,304.285 682.611,317.922C687.042,331.56 682.567,346.515 671.372,355.476L549.394,453.122C548.03,454.213 547.016,455.68 546.476,457.341C545.936,459.003 545.894,460.785 546.356,462.47L587.645,613.164C591.434,626.993 586.264,641.724 574.663,650.152C563.063,658.58 547.456,658.945 535.475,651.068L404.915,565.233C403.455,564.274 401.747,563.762 400,563.762C398.253,563.762 396.545,564.274 395.085,565.233L264.525,651.068C252.544,658.945 236.937,658.58 225.337,650.152C213.736,641.724 208.566,626.993 212.355,613.164L253.644,462.47C254.106,460.785 254.064,459.003 253.524,457.341C252.984,455.68 251.97,454.213 250.606,453.122L128.628,355.476C117.433,346.515 112.958,331.56 117.389,317.922C121.819,304.285 134.231,294.817 148.555,294.147L304.632,286.847C306.377,286.766 308.06,286.175 309.473,285.149C310.886,284.122 311.968,282.704 312.584,281.07L367.757,134.887Z"/>
</svg>
