<?xml version="1.0" encoding="UTF-8" standalone="no"?>
<!DOCTYPE svg PUBLIC "-//W3C//DTD SVG 1.1//EN" "http://www.w3.org/Graphics/SVG/1.1/DTD/svg11.dtd">
<svg width="100%" height="100%" viewBox="0 0 5906 5906" version="1.1" xmlns="http://www.w3.org/2000/svg" xmlns:xlink="http://www.w3.org/1999/xlink" xml:space="preserve" style="fill-rule:evenodd;clip-rule:evenodd;stroke-linejoin:round;stroke-miterlimit:2;">
    <path d="M5183.92,2027.62C4948.25,2268.41 4680.76,2527.81 4563.44,2618.12C4475.6,2685.74 4326.84,2711.57 4211.25,2652.42C4133.53,2612.65 4061.45,2539.32 4041.07,2405.51C4032.44,2348.84 4030.34,2204.21 4030.3,2078.87C3833.11,2081.98 3519.95,2093.19 3204.43,2130.18C2882.8,2167.88 2556.73,2227.55 2369.24,2344.59C1860.94,2661.91 1961.93,3237.42 1984.21,3363.59C1992.09,3408.19 1992.23,3435.96 1991.82,3442.52C1988.45,3497.17 1952.26,3598.7 1898.72,3655.89C1848.6,3709.43 1786.82,3735.27 1727.09,3738.28C1657.42,3741.78 1555.76,3725.71 1482.86,3582.42C1166.08,2959.82 1198.9,2428.9 1360.3,2027.62L462.566,2027.62C207.269,2027.62 -0,2234.89 -0,2490.19L-0,3415.32C-0,3670.62 207.269,3877.89 462.566,3877.89L5442.95,3877.89C5698.24,3877.89 5905.51,3670.62 5905.51,3415.32L5905.51,2490.19C5905.51,2234.89 5698.24,2027.62 5442.95,2027.62L5183.92,2027.62ZM4428.56,285.428C4428.56,285.428 5248.09,1070.2 5411.99,1268.86C5456.23,1322.48 5456.2,1423.75 5411.99,1477.4C5249.39,1674.76 4630.52,2303.58 4436.36,2453.03C4382.18,2494.74 4265.73,2496.9 4247.03,2374.14C4231.59,2272.78 4240.24,1869.94 4240.24,1869.94C4240.24,1869.94 2777.06,1844.4 2258.91,2167.87C1573.44,2595.8 1785.43,3404.65 1783.88,3429.68C1781.17,3473.63 1722.23,3593.48 1668.54,3487.95C1221.2,2608.74 1551.45,1934.88 1884.9,1605.31C2218.35,1275.74 2603.94,1103.61 3342.64,981.482C4063.31,862.337 4243.84,888.029 4243.84,888.029L4244.57,372.493C4244.57,372.493 4268.71,249.735 4428.56,285.428Z"/>
</svg>
